<svg width="18" height="18" viewBox="0 0 18 18" fill="none" xmlns="http://www.w3.org/2000/svg">
<path d="M8.75 17.5C6.30324 17.5 4.23322 17.1233 2.53993 16.3698C0.846644 15.6163 0 14.6968 0 13.6111V3.88889C0 2.81944 0.854745 1.90393 2.56424 1.14236C4.27373 0.380787 6.33565 -2.98023e-07 8.75 -2.98023e-07C11.1644 -2.98023e-07 13.2263 0.380787 14.9358 1.14236C16.6453 1.90393 17.5 2.81944 17.5 3.88889V13.6111C17.5 14.6968 16.6534 15.6163 14.9601 16.3698C13.2668 17.1233 11.1968 17.5 8.75 17.5ZM8.75 5.85764C10.1921 5.85764 11.6424 5.65104 13.1007 5.23785C14.559 4.82465 15.3773 4.3831 15.5556 3.91319C15.3773 3.44329 14.5631 2.99768 13.1128 2.57639C11.6626 2.15509 10.2083 1.94444 8.75 1.94444C7.27546 1.94444 5.82928 2.15104 4.41146 2.56424C2.99363 2.97743 2.1713 3.42708 1.94444 3.91319C2.1713 4.39931 2.99363 4.84491 4.41146 5.25C5.82928 5.65509 7.27546 5.85764 8.75 5.85764ZM8.75 10.6944C9.43056 10.6944 10.0868 10.662 10.7188 10.5972C11.3507 10.5324 11.9543 10.4392 12.5295 10.3177C13.1047 10.1962 13.6476 10.0463 14.158 9.86806C14.6684 9.68981 15.1343 9.48727 15.5556 9.26042V6.34375C15.1343 6.5706 14.6684 6.77315 14.158 6.95139C13.6476 7.12963 13.1047 7.27951 12.5295 7.40104C11.9543 7.52257 11.3507 7.61574 10.7188 7.68056C10.0868 7.74537 9.43056 7.77778 8.75 7.77778C8.06944 7.77778 7.40509 7.74537 6.75694 7.68056C6.1088 7.61574 5.49711 7.52257 4.92188 7.40104C4.34664 7.27951 3.80787 7.12963 3.30556 6.95139C2.80324 6.77315 2.34954 6.5706 1.94444 6.34375V9.26042C2.34954 9.48727 2.80324 9.68981 3.30556 9.86806C3.80787 10.0463 4.34664 10.1962 4.92188 10.3177C5.49711 10.4392 6.1088 10.5324 6.75694 10.5972C7.40509 10.662 8.06944 10.6944 8.75 10.6944ZM8.75 15.5556C9.49537 15.5556 10.2529 15.4988 11.0226 15.3854C11.7922 15.272 12.5012 15.1221 13.1493 14.9358C13.7975 14.7494 14.3403 14.5388 14.7778 14.3038C15.2153 14.0689 15.4745 13.8299 15.5556 13.5868V11.2049C15.1343 11.4317 14.6684 11.6343 14.158 11.8125C13.6476 11.9907 13.1047 12.1406 12.5295 12.2622C11.9543 12.3837 11.3507 12.4769 10.7188 12.5417C10.0868 12.6065 9.43056 12.6389 8.75 12.6389C8.06944 12.6389 7.40509 12.6065 6.75694 12.5417C6.1088 12.4769 5.49711 12.3837 4.92188 12.2622C4.34664 12.1406 3.80787 11.9907 3.30556 11.8125C2.80324 11.6343 2.34954 11.4317 1.94444 11.2049V13.6111C2.02546 13.8542 2.28067 14.0891 2.71007 14.316C3.13947 14.5428 3.67824 14.7494 4.32639 14.9358C4.97454 15.1221 5.6875 15.272 6.46528 15.3854C7.24306 15.4988 8.00463 15.5556 8.75 15.5556Z" fill="#1E293B"/>
</svg>
