<svg width="25" height="28" viewBox="0 0 25 28" fill="none" xmlns="http://www.w3.org/2000/svg">
<path d="M12.01 22.75C9.56325 22.75 7.49323 22.3733 5.79994 21.6198C4.10665 20.8663 3.26001 19.9468 3.26001 18.8611V9.13889C3.26001 8.06944 4.11476 7.15393 5.82425 6.39236C7.53374 5.63079 9.59566 5.25 12.01 5.25C14.4244 5.25 16.4863 5.63079 18.1958 6.39236C19.9053 7.15393 20.76 8.06944 20.76 9.13889V18.8611C20.76 19.9468 19.9134 20.8663 18.2201 21.6198C16.5268 22.3733 14.4568 22.75 12.01 22.75ZM12.01 11.1076C13.4521 11.1076 14.9024 10.901 16.3607 10.4878C17.819 10.0747 18.6373 9.6331 18.8156 9.16319C18.6373 8.69329 17.8231 8.24768 16.3729 7.82639C14.9226 7.40509 13.4683 7.19444 12.01 7.19444C10.5355 7.19444 9.08929 7.40104 7.67147 7.81424C6.25364 8.22743 5.43131 8.67708 5.20445 9.16319C5.43131 9.64931 6.25364 10.0949 7.67147 10.5C9.08929 10.9051 10.5355 11.1076 12.01 11.1076ZM12.01 15.9444C12.6906 15.9444 13.3468 15.912 13.9788 15.8472C14.6107 15.7824 15.2143 15.6892 15.7895 15.5677C16.3648 15.4462 16.9076 15.2963 17.418 15.1181C17.9284 14.9398 18.3943 14.7373 18.8156 14.5104V11.5937C18.3943 11.8206 17.9284 12.0231 17.418 12.2014C16.9076 12.3796 16.3648 12.5295 15.7895 12.651C15.2143 12.7726 14.6107 12.8657 13.9788 12.9306C13.3468 12.9954 12.6906 13.0278 12.01 13.0278C11.3295 13.0278 10.6651 12.9954 10.017 12.9306C9.36881 12.8657 8.75712 12.7726 8.18188 12.651C7.60665 12.5295 7.06788 12.3796 6.56557 12.2014C6.06325 12.0231 5.60955 11.8206 5.20445 11.5937V14.5104C5.60955 14.7373 6.06325 14.9398 6.56557 15.1181C7.06788 15.2963 7.60665 15.4462 8.18188 15.5677C8.75712 15.6892 9.36881 15.7824 10.017 15.8472C10.6651 15.912 11.3295 15.9444 12.01 15.9444ZM12.01 20.8056C12.7554 20.8056 13.5129 20.7488 14.2826 20.6354C15.0523 20.522 15.7612 20.3721 16.4093 20.1858C17.0575 19.9994 17.6003 19.7888 18.0378 19.5538C18.4753 19.3189 18.7345 19.0799 18.8156 18.8368V16.4549C18.3943 16.6817 17.9284 16.8843 17.418 17.0625C16.9076 17.2407 16.3648 17.3906 15.7895 17.5122C15.2143 17.6337 14.6107 17.7269 13.9788 17.7917C13.3468 17.8565 12.6906 17.8889 12.01 17.8889C11.3295 17.8889 10.6651 17.8565 10.017 17.7917C9.36881 17.7269 8.75712 17.6337 8.18188 17.5122C7.60665 17.3906 7.06788 17.2407 6.56557 17.0625C6.06325 16.8843 5.60955 16.6817 5.20445 16.4549V18.8611C5.28547 19.1042 5.54068 19.3391 5.97008 19.566C6.39948 19.7928 6.93825 19.9994 7.5864 20.1858C8.23455 20.3721 8.94751 20.522 9.72529 20.6354C10.5031 20.7488 11.2646 20.8056 12.01 20.8056Z" fill="#1E293B"/>
</svg>
